<svg xmlns="http://www.w3.org/2000/svg" width="320" height="108" viewBox="0 0 320 108">
  <!-- Logo on cream background — horizontal lockup -->
  <rect width="108" height="108" fill="#FFF8E7" rx="14"/>
  <g transform="translate(0,0)">
    <rect x="0" y="0" width="108" height="108" fill="#B31919" rx="14"/>
    <g fill="#FFF8E7">
      <path d="M 40 32 a 14 14 0 1 0 0 28 a 14 14 0 0 0 14 -14 l -8 0 a 6 6 0 1 1 -6 -6 l 0 -8 z" fill-rule="evenodd"/>
      <path d="M 56 60 a 8 8 0 0 1 16 0 l 0 4 l -16 0 l 0 6 l 16 0 l 0 6 l -16 0 l 0 -6 l 8 -8 l 0 -2 a 4 4 0 0 0 -8 0 z" fill-rule="evenodd"/>
    </g>
    <circle cx="22" cy="86" r="6" fill="#D4A23A"/>
    <rect x="16" y="92" width="12" height="4" fill="#D4A23A"/>
    <rect x="14" y="96" width="16" height="4" fill="#D4A23A"/>
  </g>
  <!-- Wordmark -->
  <text x="124" y="50" font-family="Inter, Helvetica, Arial, sans-serif" font-size="28" font-weight="800" fill="#1F1F1F">Realita +62</text>
  <text x="124" y="78" font-family="Inter, Helvetica, Arial, sans-serif" font-size="14" font-weight="500" fill="#0E5A4F">Life Board — Papan Kehidupan</text>
</svg>
